<svg width="0" height="0" class="hidden">
  <symbol version="1.1" xmlns="http://www.w3.org/2000/svg" xmlns:xlink="http://www.w3.org/1999/xlink" xmlnsSketch="http://www.bohemiancoding.com/sketch/ns" viewBox="-4 0 32 32" id="location2">
    <title>location</title>
    <desc>Created with Sketch Beta.</desc>
    <defs></defs>
    <g id="Page-1" stroke="none" stroke-width="1" fill="none" fill-rule="evenodd" sketchType="MSPage">
      <g id="Icon-Set" sketchType="MSLayerGroup" transform="translate(-104.000000, -411.000000)" fill="#000000">
        <path d="M116,426 C114.343,426 113,424.657 113,423 C113,421.343 114.343,420 116,420 C117.657,420 119,421.343 119,423 C119,424.657 117.657,426 116,426 L116,426 Z M116,418 C113.239,418 111,420.238 111,423 C111,425.762 113.239,428 116,428 C118.761,428 121,425.762 121,423 C121,420.238 118.761,418 116,418 L116,418 Z M116,440 C114.337,440.009 106,427.181 106,423 C106,417.478 110.477,413 116,413 C121.523,413 126,417.478 126,423 C126,427.125 117.637,440.009 116,440 L116,440 Z M116,411 C109.373,411 104,416.373 104,423 C104,428.018 114.005,443.011 116,443 C117.964,443.011 128,427.95 128,423 C128,416.373 122.627,411 116,411 L116,411 Z" id="location" sketchType="MSShapeGroup"></path>
      </g>
    </g>
  </symbol>
  <symbol fill="none" xmlns="http://www.w3.org/2000/svg" viewBox="0 0 24 24" id="mobile">
    <path d="M12 18H12.01M11 6H13M9.2 21H14.8C15.9201 21 16.4802 21 16.908 20.782C17.2843 20.5903 17.5903 20.2843 17.782 19.908C18 19.4802 18 18.9201 18 17.8V6.2C18 5.0799 18 4.51984 17.782 4.09202C17.5903 3.71569 17.2843 3.40973 16.908 3.21799C16.4802 3 15.9201 3 14.8 3H9.2C8.0799 3 7.51984 3 7.09202 3.21799C6.71569 3.40973 6.40973 3.71569 6.21799 4.09202C6 4.51984 6 5.07989 6 6.2V17.8C6 18.9201 6 19.4802 6.21799 19.908C6.40973 20.2843 6.71569 20.5903 7.09202 20.782C7.51984 21 8.07989 21 9.2 21Z" stroke="#000000" stroke-width="2" stroke-linecap="round" stroke-linejoin="round"></path>
  </symbol>
  <symbol fill="none" xmlns="http://www.w3.org/2000/svg" viewBox="0 0 24 24" id="email">
    <path d="M4 7.00005L10.2 11.65C11.2667 12.45 12.7333 12.45 13.8 11.65L20 7" stroke="#000000" stroke-width="2" stroke-linecap="round" stroke-linejoin="round"></path>
    <rect x="3" y="5" width="18" height="14" rx="2" stroke="#000000" stroke-width="2" stroke-linecap="round"></rect>
  </symbol>
</svg>