<?xml version="1.0" encoding="UTF-8"?>
<!DOCTYPE svg PUBLIC "-//W3C//DTD SVG 1.1//EN" "http://www.w3.org/Graphics/SVG/1.1/DTD/svg11.dtd">
<svg xmlns="http://www.w3.org/2000/svg" version="1.1" width="310px" height="163px" style="shape-rendering:geometricPrecision; text-rendering:geometricPrecision; image-rendering:optimizeQuality; fill-rule:evenodd; clip-rule:evenodd" xmlns:xlink="http://www.w3.org/1999/xlink">
<g><path style="opacity:1" fill="#fefefe" d="M -0.5,-0.5 C 102.833,-0.5 206.167,-0.5 309.5,-0.5C 309.5,53.8333 309.5,108.167 309.5,162.5C 206.167,162.5 102.833,162.5 -0.5,162.5C -0.5,108.167 -0.5,53.8333 -0.5,-0.5 Z"/></g>
<g><path style="opacity:1" fill="#000000" d="M 267.5,53.5 C 272.833,53.5 278.167,53.5 283.5,53.5C 283.5,55.8333 283.5,58.1667 283.5,60.5C 278.167,60.5 272.833,60.5 267.5,60.5C 267.5,58.1667 267.5,55.8333 267.5,53.5 Z"/></g>
<g><path style="opacity:1" fill="#a5a5a5" d="M 212.5,68.5 C 210.167,68.5 207.833,68.5 205.5,68.5C 205.802,71.0593 205.468,73.3926 204.5,75.5C 204.5,72.8333 204.5,70.1667 204.5,67.5C 207.385,67.1936 210.052,67.5269 212.5,68.5 Z"/></g>
<g><path style="opacity:1" fill="#0b0b0b" d="M 187.5,68.5 C 190.167,68.5 192.833,68.5 195.5,68.5C 195.5,72.1667 195.5,75.8333 195.5,79.5C 197.527,79.6621 199.527,79.4955 201.5,79C 203.426,78.5776 204.426,77.4109 204.5,75.5C 205.468,73.3926 205.802,71.0593 205.5,68.5C 207.833,68.5 210.167,68.5 212.5,68.5C 211.255,73.8822 213.089,77.5489 218,79.5C 219.605,78.8993 220.938,77.8993 222,76.5C 222.497,73.854 222.664,71.1873 222.5,68.5C 225.167,68.5 227.833,68.5 230.5,68.5C 229.769,72.6034 230.769,76.1034 233.5,79C 238.823,79.4994 244.156,79.666 249.5,79.5C 249.5,75.8333 249.5,72.1667 249.5,68.5C 252.167,68.5 254.833,68.5 257.5,68.5C 257.5,72.1667 257.5,75.8333 257.5,79.5C 263.69,79.8229 269.69,79.4896 275.5,78.5C 275.5,75.1667 275.5,71.8333 275.5,68.5C 278.167,68.5 280.833,68.5 283.5,68.5C 283.5,74.8333 283.5,81.1667 283.5,87.5C 266.497,87.6666 249.497,87.4999 232.5,87C 230.336,86.0857 228.336,84.919 226.5,83.5C 220.633,87.4728 214.8,87.4728 209,83.5C 207.2,85.317 205.034,86.4837 202.5,87C 188.837,87.4999 175.171,87.6666 161.5,87.5C 159.542,103.489 150.542,110.322 134.5,108C 127.137,105.305 122.637,100.138 121,92.5C 120.501,88.1794 120.334,83.8461 120.5,79.5C 123.167,79.5 125.833,79.5 128.5,79.5C 127.482,86.2917 128.816,92.4584 132.5,98C 141.724,103.021 148.391,100.855 152.5,91.5C 153.451,90.0813 153.784,88.4147 153.5,86.5C 150.167,86.5 146.833,86.5 143.5,86.5C 143.5,84.1667 143.5,81.8333 143.5,79.5C 158.167,79.5 172.833,79.5 187.5,79.5C 187.5,75.8333 187.5,72.1667 187.5,68.5 Z"/></g>
<g><path style="opacity:1" fill="#ff5932" d="M 52.5,68.5 C 66.1667,68.5 79.8333,68.5 93.5,68.5C 93.5,72.8333 93.5,77.1667 93.5,81.5C 79.8333,81.5 66.1667,81.5 52.5,81.5C 52.5,77.1667 52.5,72.8333 52.5,68.5 Z"/></g>
<g><path style="opacity:1" fill="#ababab" d="M 187.5,68.5 C 187.5,72.1667 187.5,75.8333 187.5,79.5C 172.833,79.5 158.167,79.5 143.5,79.5C 157.657,78.5041 171.99,78.1707 186.5,78.5C 186.187,74.9581 186.521,71.6248 187.5,68.5 Z"/></g>
<g><path style="opacity:1" fill="#afafaf" d="M 257.5,68.5 C 258.479,71.6248 258.813,74.9581 258.5,78.5C 264.167,78.5 269.833,78.5 275.5,78.5C 269.69,79.4896 263.69,79.8229 257.5,79.5C 257.5,75.8333 257.5,72.1667 257.5,68.5 Z"/></g>
<g><path style="opacity:1" fill="#7a7a7a" d="M 143.5,86.5 C 146.833,86.5 150.167,86.5 153.5,86.5C 153.784,88.4147 153.451,90.0813 152.5,91.5C 152.5,90.1667 152.5,88.8333 152.5,87.5C 149.287,87.81 146.287,87.4767 143.5,86.5 Z"/></g>
<g><path style="opacity:1" fill="#7e7e7e" d="M 249.5,108.5 C 252.167,108.5 254.833,108.5 257.5,108.5C 257.5,103.833 257.5,99.1667 257.5,94.5C 251.833,94.5 246.167,94.5 240.5,94.5C 240.5,96.8333 240.5,99.1667 240.5,101.5C 243.713,101.19 246.713,101.523 249.5,102.5C 246.167,102.5 242.833,102.5 239.5,102.5C 239.5,99.5 239.5,96.5 239.5,93.5C 245.833,93.5 252.167,93.5 258.5,93.5C 258.5,98.8333 258.5,104.167 258.5,109.5C 255.287,109.81 252.287,109.477 249.5,108.5 Z"/></g>
<g><path style="opacity:1" fill="#000000" d="M 249.5,108.5 C 249.5,106.5 249.5,104.5 249.5,102.5C 246.713,101.523 243.713,101.19 240.5,101.5C 240.5,99.1667 240.5,96.8333 240.5,94.5C 246.167,94.5 251.833,94.5 257.5,94.5C 257.5,99.1667 257.5,103.833 257.5,108.5C 254.833,108.5 252.167,108.5 249.5,108.5 Z"/></g>
<g><path style="opacity:1" fill="#ff5b35" d="M 92.5,95.5 C 93.8333,99.8333 93.8333,104.167 92.5,108.5C 70.673,107.503 48.673,107.169 26.5,107.5C 26.5,103.833 26.5,100.167 26.5,96.5C 48.673,96.8307 70.673,96.4974 92.5,95.5 Z"/></g>
<g><path style="opacity:1" fill="#ff4e1f" d="M 92.5,95.5 C 70.673,96.4974 48.673,96.8307 26.5,96.5C 26.5,100.167 26.5,103.833 26.5,107.5C 48.673,107.169 70.673,107.503 92.5,108.5C 70.1667,108.5 47.8333,108.5 25.5,108.5C 25.5,104.167 25.5,99.8333 25.5,95.5C 47.8333,95.5 70.1667,95.5 92.5,95.5 Z"/></g>
</svg>
